<svg id="visual" viewBox="0 0 900 200" width="900" height="200" xmlns="http://www.w3.org/2000/svg" xmlns:xlink="http://www.w3.org/1999/xlink" version="1.1"><rect x="0" y="0" width="900" height="200" fill="#131313"></rect><path d="M0 155L12.5 154C25 153 50 151 75 147.5C100 144 125 139 150 132C175 125 200 116 225 120.3C250 124.7 275 142.3 300 144.3C325 146.3 350 132.7 375 131.2C400 129.7 425 140.3 450 137.8C475 135.3 500 119.7 525 117.8C550 116 575 128 600 137.3C625 146.7 650 153.3 675 152.5C700 151.7 725 143.3 750 144C775 144.7 800 154.3 825 154.5C850 154.7 875 145.3 887.5 140.7L900 136L900 0L887.5 0C875 0 850 0 825 0C800 0 775 0 750 0C725 0 700 0 675 0C650 0 625 0 600 0C575 0 550 0 525 0C500 0 475 0 450 0C425 0 400 0 375 0C350 0 325 0 300 0C275 0 250 0 225 0C200 0 175 0 150 0C125 0 100 0 75 0C50 0 25 0 12.5 0L0 0Z" fill="#b78707"></path><path d="M0 129L12.5 121.2C25 113.3 50 97.7 75 93C100 88.3 125 94.7 150 95.5C175 96.3 200 91.7 225 94C250 96.3 275 105.7 300 111.3C325 117 350 119 375 121.5C400 124 425 127 450 127.7C475 128.3 500 126.7 525 124.2C550 121.7 575 118.3 600 119.7C625 121 650 127 675 121.7C700 116.3 725 99.7 750 92.2C775 84.7 800 86.3 825 92.3C850 98.3 875 108.7 887.5 113.8L900 119L900 0L887.5 0C875 0 850 0 825 0C800 0 775 0 750 0C725 0 700 0 675 0C650 0 625 0 600 0C575 0 550 0 525 0C500 0 475 0 450 0C425 0 400 0 375 0C350 0 325 0 300 0C275 0 250 0 225 0C200 0 175 0 150 0C125 0 100 0 75 0C50 0 25 0 12.5 0L0 0Z" fill="#a97f04"></path><path d="M0 74L12.5 72.5C25 71 50 68 75 70.2C100 72.3 125 79.7 150 79.7C175 79.7 200 72.3 225 71.3C250 70.3 275 75.7 300 77.5C325 79.3 350 77.7 375 78.7C400 79.7 425 83.3 450 85.3C475 87.3 500 87.7 525 83.2C550 78.7 575 69.3 600 67.2C625 65 650 70 675 75C700 80 725 85 750 84.2C775 83.3 800 76.7 825 75.5C850 74.3 875 78.7 887.5 80.8L900 83L900 0L887.5 0C875 0 850 0 825 0C800 0 775 0 750 0C725 0 700 0 675 0C650 0 625 0 600 0C575 0 550 0 525 0C500 0 475 0 450 0C425 0 400 0 375 0C350 0 325 0 300 0C275 0 250 0 225 0C200 0 175 0 150 0C125 0 100 0 75 0C50 0 25 0 12.5 0L0 0Z" fill="#9b7702"></path><path d="M0 65L12.5 66.3C25 67.7 50 70.3 75 69.3C100 68.3 125 63.7 150 58.3C175 53 200 47 225 48.8C250 50.7 275 60.3 300 61.2C325 62 350 54 375 55.2C400 56.3 425 66.7 450 72C475 77.3 500 77.7 525 75.7C550 73.7 575 69.3 600 64.3C625 59.3 650 53.7 675 51C700 48.3 725 48.7 750 51.3C775 54 800 59 825 60.3C850 61.7 875 59.3 887.5 58.2L900 57L900 0L887.5 0C875 0 850 0 825 0C800 0 775 0 750 0C725 0 700 0 675 0C650 0 625 0 600 0C575 0 550 0 525 0C500 0 475 0 450 0C425 0 400 0 375 0C350 0 325 0 300 0C275 0 250 0 225 0C200 0 175 0 150 0C125 0 100 0 75 0C50 0 25 0 12.5 0L0 0Z" fill="#8d6e01"></path><path d="M0 27L12.5 29.5C25 32 50 37 75 36.5C100 36 125 30 150 28C175 26 200 28 225 29.5C250 31 275 32 300 31.5C325 31 350 29 375 29.3C400 29.7 425 32.3 450 33.8C475 35.3 500 35.7 525 35.2C550 34.7 575 33.3 600 31.2C625 29 650 26 675 28C700 30 725 37 750 39.5C775 42 800 40 825 36.2C850 32.3 875 26.7 887.5 23.8L900 21L900 0L887.5 0C875 0 850 0 825 0C800 0 775 0 750 0C725 0 700 0 675 0C650 0 625 0 600 0C575 0 550 0 525 0C500 0 475 0 450 0C425 0 400 0 375 0C350 0 325 0 300 0C275 0 250 0 225 0C200 0 175 0 150 0C125 0 100 0 75 0C50 0 25 0 12.5 0L0 0Z" fill="#806600"></path></svg>