<svg id="visual" viewBox="0 0 900 200" width="900" height="200" xmlns="http://www.w3.org/2000/svg" xmlns:xlink="http://www.w3.org/1999/xlink" version="1.1"><rect x="0" y="0" width="900" height="200" fill="#F3E8AF"></rect><path d="M0 43L12.5 44C25 45 50 47 75 50.5C100 54 125 59 150 66C175 73 200 82 225 77.7C250 73.3 275 55.7 300 53.7C325 51.7 350 65.3 375 66.8C400 68.3 425 57.7 450 60.2C475 62.7 500 78.3 525 80.2C550 82 575 70 600 60.7C625 51.3 650 44.7 675 45.5C700 46.3 725 54.7 750 54C775 53.3 800 43.7 825 43.5C850 43.3 875 52.7 887.5 57.3L900 62L900 201L887.5 201C875 201 850 201 825 201C800 201 775 201 750 201C725 201 700 201 675 201C650 201 625 201 600 201C575 201 550 201 525 201C500 201 475 201 450 201C425 201 400 201 375 201C350 201 325 201 300 201C275 201 250 201 225 201C200 201 175 201 150 201C125 201 100 201 75 201C50 201 25 201 12.5 201L0 201Z" fill="#b78707"></path><path d="M0 69L12.5 76.8C25 84.7 50 100.3 75 105C100 109.7 125 103.3 150 102.5C175 101.7 200 106.3 225 104C250 101.7 275 92.3 300 86.7C325 81 350 79 375 76.5C400 74 425 71 450 70.3C475 69.7 500 71.3 525 73.8C550 76.3 575 79.7 600 78.3C625 77 650 71 675 76.3C700 81.7 725 98.3 750 105.8C775 113.3 800 111.7 825 105.7C850 99.7 875 89.3 887.5 84.2L900 79L900 201L887.5 201C875 201 850 201 825 201C800 201 775 201 750 201C725 201 700 201 675 201C650 201 625 201 600 201C575 201 550 201 525 201C500 201 475 201 450 201C425 201 400 201 375 201C350 201 325 201 300 201C275 201 250 201 225 201C200 201 175 201 150 201C125 201 100 201 75 201C50 201 25 201 12.5 201L0 201Z" fill="#a97f04"></path><path d="M0 124L12.5 125.5C25 127 50 130 75 127.8C100 125.7 125 118.3 150 118.3C175 118.3 200 125.7 225 126.7C250 127.7 275 122.3 300 120.5C325 118.7 350 120.3 375 119.3C400 118.3 425 114.7 450 112.7C475 110.7 500 110.3 525 114.8C550 119.3 575 128.7 600 130.8C625 133 650 128 675 123C700 118 725 113 750 113.8C775 114.7 800 121.3 825 122.5C850 123.7 875 119.3 887.5 117.2L900 115L900 201L887.5 201C875 201 850 201 825 201C800 201 775 201 750 201C725 201 700 201 675 201C650 201 625 201 600 201C575 201 550 201 525 201C500 201 475 201 450 201C425 201 400 201 375 201C350 201 325 201 300 201C275 201 250 201 225 201C200 201 175 201 150 201C125 201 100 201 75 201C50 201 25 201 12.5 201L0 201Z" fill="#9b7702"></path><path d="M0 133L12.5 131.7C25 130.3 50 127.7 75 128.7C100 129.7 125 134.3 150 139.7C175 145 200 151 225 149.2C250 147.3 275 137.7 300 136.8C325 136 350 144 375 142.8C400 141.7 425 131.3 450 126C475 120.7 500 120.3 525 122.3C550 124.3 575 128.7 600 133.7C625 138.7 650 144.3 675 147C700 149.7 725 149.3 750 146.7C775 144 800 139 825 137.7C850 136.3 875 138.7 887.5 139.8L900 141L900 201L887.5 201C875 201 850 201 825 201C800 201 775 201 750 201C725 201 700 201 675 201C650 201 625 201 600 201C575 201 550 201 525 201C500 201 475 201 450 201C425 201 400 201 375 201C350 201 325 201 300 201C275 201 250 201 225 201C200 201 175 201 150 201C125 201 100 201 75 201C50 201 25 201 12.5 201L0 201Z" fill="#8d6e01"></path><path d="M0 171L12.5 168.5C25 166 50 161 75 161.5C100 162 125 168 150 170C175 172 200 170 225 168.5C250 167 275 166 300 166.5C325 167 350 169 375 168.7C400 168.3 425 165.7 450 164.2C475 162.7 500 162.3 525 162.8C550 163.3 575 164.7 600 166.8C625 169 650 172 675 170C700 168 725 161 750 158.5C775 156 800 158 825 161.8C850 165.7 875 171.3 887.5 174.2L900 177L900 201L887.5 201C875 201 850 201 825 201C800 201 775 201 750 201C725 201 700 201 675 201C650 201 625 201 600 201C575 201 550 201 525 201C500 201 475 201 450 201C425 201 400 201 375 201C350 201 325 201 300 201C275 201 250 201 225 201C200 201 175 201 150 201C125 201 100 201 75 201C50 201 25 201 12.5 201L0 201Z" fill="#806600"></path></svg>