<svg id="visual" viewBox="0 0 900 200" width="900" height="200" xmlns="http://www.w3.org/2000/svg" xmlns:xlink="http://www.w3.org/1999/xlink" version="1.1"><rect x="0" y="0" width="900" height="200" fill="#ffcc00"></rect><path d="M0 89L12.5 84.2C25 79.3 50 69.7 75 63C100 56.3 125 52.7 150 48.2C175 43.7 200 38.3 225 45.3C250 52.3 275 71.7 300 76.5C325 81.3 350 71.7 375 66.7C400 61.7 425 61.3 450 66.7C475 72 500 83 525 79.2C550 75.3 575 56.7 600 49.2C625 41.7 650 45.3 675 54.3C700 63.3 725 77.7 750 85C775 92.3 800 92.7 825 88.8C850 85 875 77 887.5 73L900 69L900 201L887.5 201C875 201 850 201 825 201C800 201 775 201 750 201C725 201 700 201 675 201C650 201 625 201 600 201C575 201 550 201 525 201C500 201 475 201 450 201C425 201 400 201 375 201C350 201 325 201 300 201C275 201 250 201 225 201C200 201 175 201 150 201C125 201 100 201 75 201C50 201 25 201 12.5 201L0 201Z" fill="#fa7268"></path><path d="M0 92L12.5 88.3C25 84.7 50 77.3 75 77.3C100 77.3 125 84.7 150 89.8C175 95 200 98 225 93.5C250 89 275 77 300 72.2C325 67.3 350 69.7 375 73.3C400 77 425 82 450 88.3C475 94.7 500 102.3 525 106.7C550 111 575 112 600 105.7C625 99.3 650 85.7 675 84.7C700 83.7 725 95.3 750 96.2C775 97 800 87 825 81.5C850 76 875 75 887.5 74.5L900 74L900 201L887.5 201C875 201 850 201 825 201C800 201 775 201 750 201C725 201 700 201 675 201C650 201 625 201 600 201C575 201 550 201 525 201C500 201 475 201 450 201C425 201 400 201 375 201C350 201 325 201 300 201C275 201 250 201 225 201C200 201 175 201 150 201C125 201 100 201 75 201C50 201 25 201 12.5 201L0 201Z" fill="#f4626f"></path><path d="M0 114L12.5 111.5C25 109 50 104 75 108C100 112 125 125 150 130.3C175 135.7 200 133.3 225 128.7C250 124 275 117 300 111.8C325 106.7 350 103.3 375 103.7C400 104 425 108 450 107.2C475 106.3 500 100.7 525 105.2C550 109.7 575 124.3 600 126.2C625 128 650 117 675 109.8C700 102.7 725 99.3 750 97.3C775 95.3 800 94.7 825 97.7C850 100.7 875 107.3 887.5 110.7L900 114L900 201L887.5 201C875 201 850 201 825 201C800 201 775 201 750 201C725 201 700 201 675 201C650 201 625 201 600 201C575 201 550 201 525 201C500 201 475 201 450 201C425 201 400 201 375 201C350 201 325 201 300 201C275 201 250 201 225 201C200 201 175 201 150 201C125 201 100 201 75 201C50 201 25 201 12.5 201L0 201Z" fill="#ec5277"></path><path d="M0 129L12.5 129.5C25 130 50 131 75 130.3C100 129.7 125 127.3 150 126.8C175 126.3 200 127.7 225 129.5C250 131.3 275 133.7 300 133.7C325 133.7 350 131.3 375 129.2C400 127 425 125 450 127C475 129 500 135 525 140.5C550 146 575 151 600 151.7C625 152.3 650 148.7 675 148.2C700 147.7 725 150.3 750 151.8C775 153.3 800 153.7 825 152.8C850 152 875 150 887.5 149L900 148L900 201L887.5 201C875 201 850 201 825 201C800 201 775 201 750 201C725 201 700 201 675 201C650 201 625 201 600 201C575 201 550 201 525 201C500 201 475 201 450 201C425 201 400 201 375 201C350 201 325 201 300 201C275 201 250 201 225 201C200 201 175 201 150 201C125 201 100 201 75 201C50 201 25 201 12.5 201L0 201Z" fill="#e14580"></path><path d="M0 177L12.5 175.7C25 174.3 50 171.7 75 167.8C100 164 125 159 150 157.5C175 156 200 158 225 161C250 164 275 168 300 168.5C325 169 350 166 375 164.8C400 163.7 425 164.3 450 166.7C475 169 500 173 525 170.7C550 168.3 575 159.7 600 156.2C625 152.7 650 154.3 675 156.7C700 159 725 162 750 163.3C775 164.7 800 164.3 825 163.5C850 162.7 875 161.3 887.5 160.7L900 160L900 201L887.5 201C875 201 850 201 825 201C800 201 775 201 750 201C725 201 700 201 675 201C650 201 625 201 600 201C575 201 550 201 525 201C500 201 475 201 450 201C425 201 400 201 375 201C350 201 325 201 300 201C275 201 250 201 225 201C200 201 175 201 150 201C125 201 100 201 75 201C50 201 25 201 12.5 201L0 201Z" fill="#d23a8a"></path></svg>